<mxfile host="app.diagrams.net" modified="2023-09-03T17:31:34.661Z" agent="Mozilla/5.0 (Windows NT 10.0; Win64; x64) AppleWebKit/537.36 (KHTML, like Gecko) Chrome/116.0.0.0 Safari/537.36 Edg/116.0.1938.69" version="21.7.2" etag="jLarQ5N0Hq64J3uUM6bM" type="github">
  <diagram name="PÃ¡gina-1" id="qTA1LwDAaXAtvR95zAmy">
    <mxGraphModel>
      <root>
        <mxCell id="0" />
        <mxCell id="1" parent="0" />
      </root>
    </mxGraphModel>
  </diagram>
</mxfile>
